<svg xmlns="http://www.w3.org/2000/svg" width="188.4" height="153.045" viewBox="0 0 188.4 153.045">
  <g id="haw-weather" transform="translate(0.514 -34.474)">
    <path id="Path_6" data-name="Path 6" d="M175.233,55.683a5.332,5.332,0,0,0,5.49-5.16V40.134a5.5,5.5,0,0,0-10.98,0v10.39A5.332,5.332,0,0,0,175.233,55.683Z" transform="translate(-107.619)" fill="#2f4a3d" stroke="#fff" stroke-width="1"/>
    <path id="Path_7" data-name="Path 7" d="M17.809,138.857l-9.574-5.195a5.685,5.685,0,0,0-7.5,1.888A4.994,4.994,0,0,0,2.746,142.6l9.574,5.195a5.685,5.685,0,0,0,7.5-1.888,4.994,4.994,0,0,0-2.009-7.048Z" transform="translate(0 -64.288)" fill="#2f4a3d" stroke="#fff" stroke-width="1"/>
    <path id="Path_8" data-name="Path 8" d="M12.319,314.56l-9.574,5.195A4.994,4.994,0,0,0,.736,326.8a5.685,5.685,0,0,0,7.5,1.888l9.574-5.195a4.994,4.994,0,0,0,2.009-7.048,5.684,5.684,0,0,0-7.5-1.888Z" transform="translate(0 -182.963)" fill="#2f4a3d" stroke="#fff" stroke-width="1"/>
    <path id="Path_9" data-name="Path 9" d="M321.557,147.794l9.574-5.195a4.994,4.994,0,0,0,2.009-7.048,5.685,5.685,0,0,0-7.5-1.888l-9.574,5.195a4.994,4.994,0,0,0-2.009,7.048A5.685,5.685,0,0,0,321.557,147.794Z" transform="translate(-198.65 -64.288)" fill="#2f4a3d" stroke="#fff" stroke-width="1"/>
    <path id="Path_10" data-name="Path 10" d="M187.042,174.574c-6.284-14.6-21.528-24.246-38.3-24.178-6.872-14.381-22.251-24.423-40.083-24.423-24.217,0-43.918,18.517-43.918,41.276,0,14.6,8.113,27.452,20.321,34.791-13.017,19.327,1.783,44.665,26.135,44.665,86.377-.085,81.651.208,83.155-.231,19.188-2.034,34.078-17.329,34.078-35.885C228.433,189.4,209.167,172.945,187.042,174.574ZM75.723,167.25c0-17.07,14.776-30.957,32.939-30.957a33.361,33.361,0,0,1,28.624,15.667c-17.347,4.777-29.392,19.662-29.586,36.739a31.533,31.533,0,0,0-15.023,5.607C82.574,189.012,75.723,178.87,75.723,167.25ZM192.278,236.3c-1.955.149-51.774.063-81.079.089-18.1,0-26.923-21.089-13.455-32.648a20.563,20.563,0,0,1,15.292-4.814,5.314,5.314,0,0,0,5.934-5.854c-2.545-17.072,11.521-32.356,29.9-32.356,13.594,0,25.576,8.6,29.137,20.914a5.52,5.52,0,0,0,6.409,3.7c17.111-3.326,33.04,8.968,33.04,25.262C217.454,223.92,206.4,235.213,192.278,236.3Z" transform="translate(-41.048 -59.698)" fill="#2f4a3d" stroke="#fff" stroke-width="1"/>
  </g>
</svg>
