<svg xmlns="http://www.w3.org/2000/svg" width="511.999" height="511.863" viewBox="0 0 511.999 511.863">
  <g id="coffee" transform="translate(0 -0.068)">
    <g id="Group_28" data-name="Group 28">
      <path id="Path_23" data-name="Path 23" d="M472.8,39.337c-.13-.13-.265-.253-.395-.383l-.04-.039c-66.055-65.44-186.952-45.709-273.1,40.444a306.1,306.1,0,0,0-34.62,41.29c-51.43-7.624-96.7,5.183-127.787,36.274-.122.122-.237.249-.358.372-.024.025-.049.049-.072.075-62.3,63.006-42.541,189.9,42.852,275.293C165.745,519.128,292.806,537.3,355.02,475.085c.076-.076.149-.156.225-.233.04-.042.081-.082.12-.124,30.836-31.079,43.525-76.2,35.93-127.431a306.084,306.084,0,0,0,41.29-34.62C519.185,226.076,538.564,105.1,472.8,39.337ZM220.477,100.57C287.187,33.86,374.983,12.747,430.9,44.755l-.678.231a194.484,194.484,0,0,0-128.94,143.6c-31.617-28.622-67.749-49.527-104.761-60.744A278.718,278.718,0,0,1,220.477,100.57ZM100.491,411.452C37.606,348.567,12.682,257.072,42.53,199.57A201.3,201.3,0,0,0,193.508,331.72,170.972,170.972,0,0,1,322.52,445.9l4.589,13.966C274.121,502.374,171.1,482.06,100.491,411.452ZM349.7,432.738A201,201,0,0,0,199.338,302.3,171.22,171.22,0,0,1,70.9,189.839l-6.07-17.83C119.9,126.723,219.7,148.865,291.386,220.555c34.7,34.7,61.7,79.711,69.737,127.91C366.5,380.715,362.439,409.762,349.7,432.738Zm34.4-117.317c-10.842-35.776-30.74-70.726-57.9-101.575,1.316-4.768,2.481-9.591,3.44-14.427,11.954-60.313,52.14-106.252,110.256-126.037l17.846-6.075c45.14,54.5,25.9,151.894-46.363,224.161A279.209,279.209,0,0,1,384.1,315.421Z" fill="#2a8859"/>
    </g>
  </g>
</svg>
