<svg xmlns="http://www.w3.org/2000/svg" width="512" height="418" viewBox="0 0 512 418">
  <g id="Group_1" data-name="Group 1" transform="translate(-145 -136)">
    <path id="dashboard" d="M512,255.883a253.579,253.579,0,0,1-51.691,154.184,20,20,0,0,1-31.9-24.133A213.874,213.874,0,0,0,472,255.883C472,136.5,375.316,40,256,40,136.6,40,40,136.574,40,255.883A213.9,213.9,0,0,0,83.59,385.934a20,20,0,0,1-31.9,24.133A253.6,253.6,0,0,1,0,255.883C0,114.383,114.578,0,256,0,397.5,0,512,114.461,512,255.883ZM382.723,135.434a20,20,0,0,1,0,28.281l-65.191,65.191a69.994,69.994,0,1,1-28.285-28.285l65.191-65.191A20,20,0,0,1,382.723,135.434Zm-96.77,126.723A29.953,29.953,0,1,0,256,292.109,29.988,29.988,0,0,0,285.953,262.156Zm0,0" transform="translate(145 136)" fill="#2b714e"/>
  </g>
</svg>
