<svg id="Layer_1_1_" enable-background="new 0 0 64 64" height="512" viewBox="0 0 64 64" width="512" xmlns="http://www.w3.org/2000/svg"><path d="m39 2h-4-1-16-1-4c-3.309 0-6 2.691-6 6v48c0 3.309 2.691 6 6 6h26c3.309 0 6-2.691 6-6v-6h7c2.757 0 5-2.243 5-5v-2c0-.552-.448-1-1-1h-5v-21c0-2.757-2.243-5-5-5h-1v-8c0-3.309-2.691-6-6-6zm-7.816 2c-.112.314-.184.648-.184 1 0 .551-.449 1-1 1h-8c-.551 0-1-.449-1-1 0-.352-.072-.686-.184-1zm11.816 52c0 2.206-1.794 4-4 4h-26c-2.206 0-4-1.794-4-4v-48c0-2.206 1.794-4 4-4h4 1c.551 0 1 .449 1 1 0 1.654 1.346 3 3 3h8c1.654 0 3-1.346 3-3 0-.551.449-1 1-1h1 4c2.206 0 4 1.794 4 4v8h-17c-2.414 0-4.434 1.721-4.899 4h-5.101c-.552 0-1 .448-1 1v18c0 .552.448 1 1 1h11v-2h-10v-16h10v-2h-3.816c.414-1.161 1.514-2 2.816-2 1.654 0 3 1.346 3 3v25c0 2.206 1.794 4 4 4h10zm12-11c0 1.654-1.346 3-3 3h-15.537c.342-.589.537-1.272.537-2v-2h18zm-6-24v21h-13c-.552 0-1 .448-1 1v3c0 1.103-.897 2-2 2s-2-.897-2-2v-25c0-1.13-.391-2.162-1.026-3h16.026c1.654 0 3 1.346 3 3z"/><path d="m13 55v-46c0-.551.449-1 1-1h2v-2h-2c-1.654 0-3 1.346-3 3v46c0 1.654 1.346 3 3 3h23v-2h-23c-.551 0-1-.449-1-1z"/><path d="m25 26h-1v-1h-2v1h-1c-.552 0-1 .448-1 1v3c0 .552.448 1 1 1h3v1h-4v1c0 .552.448 1 1 1h1v1h2v-1h1c.552 0 1-.448 1-1v-3c0-.552-.448-1-1-1h-3v-1h4v-1c0-.552-.448-1-1-1z"/><path d="m16 42h11v2h-11z"/><path d="m16 46h11v2h-11z"/><path d="m16 50h11v2h-11z"/><path d="m40 39c3.86 0 7-3.14 7-7s-3.14-7-7-7-7 3.14-7 7 3.14 7 7 7zm2.828-6h2.071c-.094.459-.269.883-.479 1.287zm2.071-2h-3.899v-3.899c1.956.399 3.5 1.943 3.899 3.899zm-5.899-3.899v4.899c0 .314.154.583.381.766l-.009.012 3.79 3.064c-.865.712-1.957 1.158-3.162 1.158-2.757 0-5-2.243-5-5 0-2.414 1.721-4.434 4-4.899z"/><path d="m16 11h24v2h-24z"/></svg>