<svg xmlns="http://www.w3.org/2000/svg" width="50" height="60" viewBox="0 0 50 60">
  <g id="expenses" transform="translate(-7 -2)">
    <path id="Path_1" data-name="Path 1" d="M39,2H13A6.006,6.006,0,0,0,7,8V56a6.006,6.006,0,0,0,6,6H39a6.006,6.006,0,0,0,6-6V50h7a5.006,5.006,0,0,0,5-5V43a1,1,0,0,0-1-1H51V21a5.006,5.006,0,0,0-5-5H45V8A6.006,6.006,0,0,0,39,2ZM31.184,4A2.966,2.966,0,0,0,31,5a1,1,0,0,1-1,1H22a1,1,0,0,1-1-1,2.966,2.966,0,0,0-.184-1ZM43,56a4,4,0,0,1-4,4H13a4,4,0,0,1-4-4V8a4,4,0,0,1,4-4h5a1,1,0,0,1,1,1,3,3,0,0,0,3,3h8a3,3,0,0,0,3-3,1,1,0,0,1,1-1h5a4,4,0,0,1,4,4v8H26a5.009,5.009,0,0,0-4.9,4H16a1,1,0,0,0-1,1V39a1,1,0,0,0,1,1H27V38H17V22H27V20H23.184A2.993,2.993,0,0,1,29,21V46a4,4,0,0,0,4,4H43ZM55,45a3,3,0,0,1-3,3H36.463A3.97,3.97,0,0,0,37,46V44H55ZM49,21V42H36a1,1,0,0,0-1,1v3a2,2,0,0,1-4,0V21a4.948,4.948,0,0,0-1.026-3H46A3,3,0,0,1,49,21Z" fill="#2a8859"/>
    <path id="Path_2" data-name="Path 2" d="M13,55V9a1,1,0,0,1,1-1h2V6H14a3,3,0,0,0-3,3V55a3,3,0,0,0,3,3H37V56H14A1,1,0,0,1,13,55Z" fill="#2a8859"/>
    <path id="Path_3" data-name="Path 3" d="M25,26H24V25H22v1H21a1,1,0,0,0-1,1v3a1,1,0,0,0,1,1h3v1H20v1a1,1,0,0,0,1,1h1v1h2V34h1a1,1,0,0,0,1-1V30a1,1,0,0,0-1-1H22V28h4V27A1,1,0,0,0,25,26Z" fill="#2a8859"/>
    <path id="Path_4" data-name="Path 4" d="M16,42H27v2H16Z" fill="#2a8859"/>
    <path id="Path_5" data-name="Path 5" d="M16,46H27v2H16Z" fill="#2a8859"/>
    <path id="Path_6" data-name="Path 6" d="M16,50H27v2H16Z" fill="#2a8859"/>
    <path id="Path_7" data-name="Path 7" d="M40,39a7,7,0,1,0-7-7A7.008,7.008,0,0,0,40,39Zm2.828-6H44.9a4.939,4.939,0,0,1-.479,1.287ZM44.9,31H41V27.1A5.016,5.016,0,0,1,44.9,31ZM39,27.1V32a.982.982,0,0,0,.381.766l-.009.012,3.79,3.064A4.972,4.972,0,0,1,35,32a5.009,5.009,0,0,1,4-4.9Z" fill="#2a8859"/>
    <path id="Path_8" data-name="Path 8" d="M16,11H40v2H16Z" fill="#2a8859"/>
  </g>
</svg>
