<svg xmlns="http://www.w3.org/2000/svg" width="800.151" height="686.844" viewBox="0 0 800.151 686.844">
  <g id="Group_9" data-name="Group 9" transform="translate(-881.704 -280.403)">
    <g id="Group_5" data-name="Group 5" transform="matrix(0.604, -0.22, 0.764, 0.434, -154.657, 693.529)">
      <g id="Rectangle_3" data-name="Rectangle 3" transform="translate(1361 268)" fill="#fff" stroke="#11bc87" stroke-width="2">
        <rect width="404" height="728.118" rx="54" stroke="none"/>
        <rect x="1" y="1" width="402" height="726.118" rx="53" fill="none"/>
      </g>
      <g id="Subtraction_1" data-name="Subtraction 1" transform="translate(1379 282)" fill="#fff">
        <path d="M 335.9997253417969 684.3687133789062 L 32.00039291381836 684.3687133789062 C 27.78164482116699 684.3687133789062 23.68906021118164 683.5426025390625 19.83656120300293 681.913330078125 C 16.1157283782959 680.33984375 12.77364444732666 678.0865478515625 9.90297794342041 675.2157592773438 C 7.032227516174316 672.3450927734375 4.778894424438477 669.0030517578125 3.205394268035889 665.2822875976562 C 1.576144337654114 661.4296875 0.749977707862854 657.3370971679688 0.749977707862854 653.1182861328125 L 0.749977707862854 32.00043869018555 C 0.749977707862854 27.78160667419434 1.576144337654114 23.68910598754883 3.205394268035889 19.83660697937012 C 4.778810977935791 16.1158561706543 7.032227516174316 12.77369022369385 9.90297794342041 9.902939796447754 C 12.77364444732666 7.032189846038818 16.1157283782959 4.778856754302979 19.83647727966309 3.205356597900391 C 23.68906021118164 1.576106667518616 27.78164482116699 0.750023365020752 32.00039291381836 0.750023365020752 L 78.46013641357422 0.750023365020752 C 77.65699768066406 3.571443796157837 77.25031280517578 6.497115612030029 77.25031280517578 9.461689949035645 L 77.25031280517578 12.07618999481201 C 77.25031280517578 16.36360740661621 78.08964538574219 20.52194023132324 79.74497985839844 24.43560600280762 C 81.34431457519531 28.21710586547852 83.63364410400391 31.61235618591309 86.54922485351562 34.52702331542969 C 89.46481323242188 37.44260787963867 92.86039733886719 39.73194122314453 96.6414794921875 41.3311882019043 C 100.556396484375 42.98710632324219 104.7143936157227 43.82669067382812 108.9998931884766 43.82669067382812 L 259.0002136230469 43.82669067382812 C 263.2857360839844 43.82669067382812 267.4437255859375 42.98710632324219 271.358642578125 41.3311882019043 C 275.1396484375 39.73202514648438 278.53515625 37.44277191162109 281.4508972167969 34.52693939208984 C 284.3660583496094 31.61177253723145 286.6550598144531 28.21652412414551 288.2542419433594 24.43560600280762 C 289.91015625 20.52060699462891 290.7498168945312 16.36227416992188 290.7498168945312 12.07618999481201 L 290.7498168945312 9.461689949035645 C 290.7498168945312 6.497809410095215 290.3429565429688 3.572285413742065 289.5392456054688 0.750023365020752 L 335.9997253417969 0.750023365020752 C 340.2184753417969 0.750023365020752 344.3110656738281 1.576106667518616 348.16357421875 3.205356597900391 C 351.8843994140625 4.778856754302979 355.2264709472656 7.032189846038818 358.0971374511719 9.902939796447754 C 360.9678955078125 12.77369022369385 363.2213134765625 16.1158561706543 364.7947387695312 19.83652305603027 C 366.4239807128906 23.68910598754883 367.2501525878906 27.78160667419434 367.2501525878906 32.00043869018555 L 367.2501525878906 653.1182861328125 C 367.2501525878906 657.3370971679688 366.4239807128906 661.4296875 364.7947387695312 665.2821655273438 C 363.2212219238281 669.0030517578125 360.9678955078125 672.3450927734375 358.0971374511719 675.2157592773438 C 355.2280578613281 678.0849609375 351.8858947753906 680.33837890625 348.1634826660156 681.913330078125 C 344.3110656738281 683.5426025390625 340.2184753417969 684.3687133789062 335.9997253417969 684.3687133789062 Z" stroke="none"/>
        <path d="M 335.9996948242188 683.6187133789062 C 340.1176147460938 683.6187133789062 344.1117858886719 682.8125610351562 347.8711547851562 681.2227172851562 C 351.5042419433594 679.6854248046875 354.7663269042969 677.4860229492188 357.5668640136719 674.6854248046875 C 360.3688659667969 671.8834228515625 362.5683288574219 668.6214599609375 364.1039733886719 664.9901123046875 C 365.6939697265625 661.23046875 366.5001525878906 657.2361450195312 366.5001525878906 653.1182861328125 L 366.5001525878906 32.00044631958008 C 366.5001525878906 27.88253784179688 365.6939697265625 23.88826560974121 364.1039733886719 20.12872123718262 C 362.5683288574219 16.49735641479492 360.3689575195312 13.23535633087158 357.5668640136719 10.43326568603516 C 354.764892578125 7.631265640258789 351.5028686523438 5.431901931762695 347.8714294433594 3.896174907684326 C 344.1119689941406 2.306265830993652 340.1177978515625 1.500083923339844 335.9996948242188 1.500083923339844 L 290.5169067382812 1.500083923339844 C 291.1697692871094 4.091815948486328 291.4997863769531 6.761239051818848 291.4997863769531 9.46172046661377 L 291.4997863769531 12.07617473602295 C 291.4997863769531 16.46317481994629 290.6402282714844 20.71981048583984 288.945068359375 24.72781181335449 C 287.3079833984375 28.59808349609375 284.9650573730469 32.07335662841797 281.9812316894531 35.05726623535156 C 278.9968872070312 38.04172134399414 275.521240234375 40.38490295410156 271.65087890625 42.02199172973633 C 267.6428833007812 43.7171745300293 263.3865051269531 44.57672119140625 259.000244140625 44.57672119140625 L 108.9998779296875 44.57672119140625 C 104.6136093139648 44.57672119140625 100.3572463989258 43.7171745300293 96.3492431640625 42.02199172973633 C 92.4788818359375 40.38490295410156 89.00324249267578 38.04172134399414 86.01905822753906 35.05744934082031 C 83.0347900390625 32.07426452636719 80.69151306152344 28.59890174865723 79.05415344238281 24.72781181335449 C 77.35960388183594 20.72126579284668 76.50033569335938 16.46463012695312 76.50033569335938 12.07617473602295 L 76.50033569335938 9.46172046661377 C 76.50033569335938 6.760720729827881 76.83021545410156 4.091197967529297 77.482666015625 1.500083923339844 L 32.00042343139648 1.500083923339844 C 27.88233375549316 1.500083923339844 23.88815116882324 2.306265830993652 20.12869834899902 3.896174907684326 C 16.49715232849121 5.431901931762695 13.23515224456787 7.631265640258789 10.43333339691162 10.43326568603516 C 7.631152153015137 13.23535633087158 5.431788444519043 16.49735641479492 3.89624285697937 20.12872123718262 C 2.306151866912842 23.88826560974121 1.499970078468323 27.88244819641113 1.499970078468323 32.00044631958008 L 1.499970078468323 653.1182861328125 C 1.499970078468323 657.2361450195312 2.306151866912842 661.23046875 3.89624285697937 664.9901733398438 C 5.431788444519043 668.6214599609375 7.631242752075195 671.8834228515625 10.433424949646 674.6854248046875 C 13.23533344268799 677.487548828125 16.49724197387695 679.68701171875 20.12869834899902 681.22265625 C 23.88833427429199 682.8125610351562 27.88251495361328 683.6187133789062 32.00042343139648 683.6187133789062 L 335.9996948242188 683.6187133789062 M 335.9996948242188 685.1187133789062 L 32.00042343139648 685.1187133789062 C 27.68069648742676 685.1187133789062 23.48996925354004 684.272705078125 19.54442405700684 682.6041870117188 C 15.73424243927002 680.992919921875 12.31196975708008 678.685546875 9.372697830200195 675.74609375 C 6.433242797851562 672.8068237304688 4.125879287719727 669.384521484375 2.514697313308716 665.5743408203125 C 0.8460610508918762 661.62890625 -2.987393418152351e-05 657.4381103515625 -2.987393418152351e-05 653.1182861328125 L -2.987393418152351e-05 32.00044631958008 C -2.987393418152351e-05 27.68071937561035 0.8460610508918762 23.48981094360352 2.514697313308716 19.54444694519043 C 4.12578821182251 15.73444747924805 6.433151721954346 12.31208419799805 9.372697830200195 9.372629165649414 C 12.31196975708008 6.433175086975098 15.73424243927002 4.12590217590332 19.54442405700684 2.514629364013672 C 23.48996925354004 0.8459930419921875 27.68069648742676 8.396217890549451e-05 32.00042343139648 8.396217890549451e-05 L 79.4703369140625 8.396217890549451e-05 C 78.4952392578125 3.046083927154541 78.00033569335938 6.228992938995361 78.00033569335938 9.46172046661377 L 78.00033569335938 12.07617473602295 C 78.00033569335938 16.2628116607666 78.81969451904297 20.32281112670898 80.43569946289062 24.14344787597656 C 81.99733734130859 27.83562850952148 84.23260498046875 31.15072059631348 87.07951354980469 33.99662780761719 C 89.926513671875 36.8436279296875 93.24188232421875 39.07899475097656 96.93360900878906 40.64044570922852 C 100.7556076049805 42.25699234008789 104.8153305053711 43.07672119140625 108.9998779296875 43.07672119140625 L 259.000244140625 43.07672119140625 C 263.1847839355469 43.07672119140625 267.2445068359375 42.25699234008789 271.0665283203125 40.64044570922852 C 274.7582397460938 39.07899475097656 278.0735168457031 36.84371948242188 280.9205932617188 33.99662780761719 C 283.7670593261719 31.15008354187012 286.0020751953125 27.83508491516113 287.5635070800781 24.14344787597656 C 289.1801452636719 20.32126617431641 289.9997863769531 16.26126670837402 289.9997863769531 12.07617473602295 L 289.9997863769531 9.46172046661377 C 289.9997863769531 6.23153829574585 289.5049743652344 3.048084020614624 288.529052734375 8.396217890549451e-05 L 335.9996948242188 8.396217890549451e-05 C 340.3194274902344 8.396217890549451e-05 344.5101623535156 0.8459930419921875 348.4556884765625 2.514629364013672 C 352.265869140625 4.12590217590332 355.6881408691406 6.433175086975098 358.6275024414062 9.372629165649414 C 361.5669555664062 12.31208419799805 363.8743286132812 15.73444747924805 365.4855041503906 19.54444694519043 C 367.154052734375 23.48981094360352 368.0001525878906 27.68071937561035 368.0001525878906 32.00044631958008 L 368.0001525878906 653.1182861328125 C 368.0001525878906 657.4381103515625 367.154052734375 661.62890625 365.4855041503906 665.5743408203125 C 363.8742370605469 669.384521484375 361.5668640136719 672.8068237304688 358.6275024414062 675.74609375 C 355.689697265625 678.6840209960938 352.2675170898438 680.9912719726562 348.4556884765625 682.6041870117188 C 344.5101623535156 684.272705078125 340.3194274902344 685.1187133789062 335.9996948242188 685.1187133789062 Z" stroke="none" fill="#11bc87"/>
      </g>
    </g>
    <g id="Group_7" data-name="Group 7" transform="translate(-1 -26)">
      <path id="Path_5" data-name="Path 5" d="M704.172,459.575c0,1.222,2.667,2.129,2.929,3.308s-1.324,2.947-.823,4.064a22.276,22.276,0,0,0,1.83,3.271c.657.966,2.686.825,3.518,1.732a28.206,28.206,0,0,0,2.584,2.309c.883.754,2.079.913,3.083,1.607.955.66.839,3.083,1.895,3.684,1.009.575,2.553.112,3.648.629,1.051.5,1.6,2.289,2.728,2.727,1.083.423,2.424.241,3.569.607,1.108.354,2.348.3,3.51.6,1.128.29,1.989,2.027,3.162,2.261,1.143.228,2.483-.38,3.665-.208,1.154.169,2.5-1.332,3.684-1.219,1.162.111,2.257.806,3.447.862,1.167.055,2.321.583,3.511.583s2.419,1.147,3.585,1.092c1.19-.056,2.268-1.8,3.43-1.906,1.187-.114,2.6,1.7,3.758,1.534,1.182-.173,2.118-1.951,3.261-2.179,1.173-.234,2.689,1.037,3.817.747,1.161-.3,1.851-2.367,2.959-2.722,1.145-.366,2.565.13,3.648-.293,1.123-.439,2.492-.368,3.542-.864,1.094-.517,1.88-1.739,2.889-2.313,1.056-.6,1.543-2.093,2.5-2.753,1-.695,2.534-.606,3.417-1.361.932-.8,2.679-.838,3.465-1.7.832-.906,1.169-2.428,1.826-3.4.692-1.018-.666-3.17-.183-4.246.5-1.117,2.6-1.57,2.857-2.739a17.662,17.662,0,0,0,.411-3.72c0-1.222-1.792-2.156-2.054-3.335s1.059-2.849.558-3.965c-.483-1.076-.421-2.73-1.114-3.748-.657-.966-2.3-1.345-3.128-2.252-.787-.857-2.195-1.1-3.127-1.892-.883-.754-.77-3.03-1.774-3.724-.955-.66-2.287-.962-3.343-1.563-1.009-.575-2.437-.478-3.531-.994-1.051-.5-2.7.481-3.819.043-1.083-.423-1.962-1.347-3.107-1.713-1.108-.355-1.629-3.058-2.79-3.356-1.128-.29-2.515.191-3.688-.043-1.143-.228-2.681,1.9-3.863,1.732-1.154-.169-2.018-3.016-3.2-3.13-1.162-.111-2.472,1.364-3.663,1.308-1.167-.055-2.339.809-3.529.809s-2.376-1.186-3.543-1.131c-1.19.056-2.24,1.623-3.4,1.735-1.188.114-2.645-2.27-3.8-2.1-1.182.173-2.1,2.016-3.238,2.244-1.173.234-2.643-.91-3.771-.62-1.161.3-1.86,2.257-2.969,2.612-1.145.366-1.851,1.748-2.934,2.171-1.123.439-3.21-1.613-4.261-1.118-1.095.517-2.04,1.41-3.049,1.985-1.056.6-2.735.3-3.689.959-1,.695-1.251,2.559-2.134,3.314-.932.8-2.47,1.036-3.256,1.893-.832.906-.948,2.531-1.6,3.5-.692,1.018-.67,2.428-1.153,3.5-.5,1.117-1.839,1.961-2.1,3.13S704.172,458.353,704.172,459.575Z" transform="matrix(0.877, 0.319, -0.405, 0.894, 892.58, -210.785)" fill="#3f3d56"/>
      <path id="Path_8" data-name="Path 8" d="M799.977,236.779a8.031,8.031,0,0,1,6.913,4.966c1.729,4.293-.5,9.337-3.838,12.467s-7.633,4.92-11.533,7.273c-5.238,3.159-9.944,7.545-12.565,13.175s-2.9,12.6.181,17.982c2.859,4.992,8.058,7.98,13.017,10.735" transform="matrix(0.877, 0.319, -0.405, 0.894, 808.148, -100.502)" fill="none" stroke="#3f3d56" stroke-miterlimit="10" stroke-width="1"/>
      <path id="Path_9" data-name="Path 9" d="M847.041,150.885a8.031,8.031,0,0,1,6.913,4.966c1.729,4.293-.5,9.337-3.838,12.467s-7.633,4.92-11.533,7.273c-5.238,3.159-9.944,7.545-12.565,13.175s-2.9,12.6.181,17.982c2.859,4.992,8.058,7.98,13.017,10.735" transform="matrix(0.877, 0.319, -0.405, 0.894, 730.454, -66.618)" fill="none" stroke="#3f3d56" stroke-miterlimit="10" stroke-width="1"/>
      <path id="Path_10" data-name="Path 10" d="M891.126,167.331a7.839,7.839,0,0,1,8.425-.421c3.925,2.308,5.169,7.7,4.393,12.273s-3.1,8.692-4.786,13c-2.259,5.793-3.368,12.221-2.086,18.322s5.216,11.79,10.857,14.1c5.235,2.149,11.126,1.241,16.689.3" transform="matrix(0.877, 0.319, -0.405, 0.894, 655.735, -104.666)" fill="none" stroke="#3f3d56" stroke-miterlimit="10" stroke-width="1"/>
      <ellipse id="Ellipse_1" data-name="Ellipse 1" cx="8.375" cy="4.18" rx="8.375" ry="4.18" transform="matrix(0.877, 0.319, -0.405, 0.894, 1379.429, 380.54)" fill="#57b894"/>
      <ellipse id="Ellipse_2" data-name="Ellipse 2" cx="8.375" cy="4.18" rx="8.375" ry="4.18" transform="matrix(0.877, 0.319, -0.405, 0.894, 1380.638, 380.233)" fill="none" stroke="#3f3d56" stroke-miterlimit="10" stroke-width="1"/>
      <ellipse id="Ellipse_3" data-name="Ellipse 3" cx="8.375" cy="4.18" rx="8.375" ry="4.18" transform="matrix(0.877, 0.319, -0.405, 0.894, 1364.961, 371.541)" fill="#57b894"/>
      <ellipse id="Ellipse_4" data-name="Ellipse 4" cx="8.375" cy="4.18" rx="8.375" ry="4.18" transform="matrix(0.877, 0.319, -0.405, 0.894, 1366.169, 371.235)" fill="none" stroke="#3f3d56" stroke-miterlimit="10" stroke-width="1"/>
      <ellipse id="Ellipse_5" data-name="Ellipse 5" cx="8.375" cy="4.18" rx="8.375" ry="4.18" transform="matrix(0.877, 0.319, -0.405, 0.894, 1356.129, 384.749)" fill="#57b894"/>
      <ellipse id="Ellipse_6" data-name="Ellipse 6" cx="8.375" cy="4.18" rx="8.375" ry="4.18" transform="matrix(0.877, 0.319, -0.405, 0.894, 1357.337, 384.443)" fill="none" stroke="#3f3d56" stroke-miterlimit="10" stroke-width="1"/>
      <ellipse id="Ellipse_7" data-name="Ellipse 7" cx="8.375" cy="4.18" rx="8.375" ry="4.18" transform="matrix(0.877, 0.319, -0.405, 0.894, 1373.616, 350.058)" fill="#57b894"/>
      <ellipse id="Ellipse_8" data-name="Ellipse 8" cx="8.375" cy="4.18" rx="8.375" ry="4.18" transform="matrix(0.877, 0.319, -0.405, 0.894, 1374.825, 349.751)" fill="none" stroke="#3f3d56" stroke-miterlimit="10" stroke-width="1"/>
      <ellipse id="Ellipse_9" data-name="Ellipse 9" cx="8.375" cy="4.18" rx="8.375" ry="4.18" transform="matrix(0.877, 0.319, -0.405, 0.894, 1393, 354.5)" fill="#57b894"/>
      <ellipse id="Ellipse_10" data-name="Ellipse 10" cx="8.375" cy="4.18" rx="8.375" ry="4.18" transform="matrix(0.877, 0.319, -0.405, 0.894, 1394.208, 354.194)" fill="none" stroke="#3f3d56" stroke-miterlimit="10" stroke-width="1"/>
      <ellipse id="Ellipse_11" data-name="Ellipse 11" cx="8.375" cy="4.18" rx="8.375" ry="4.18" transform="matrix(0.877, 0.319, -0.405, 0.894, 1388.361, 343.481)" fill="#57b894"/>
      <ellipse id="Ellipse_12" data-name="Ellipse 12" cx="8.375" cy="4.18" rx="8.375" ry="4.18" transform="matrix(0.877, 0.319, -0.405, 0.894, 1389.569, 343.174)" fill="none" stroke="#3f3d56" stroke-miterlimit="10" stroke-width="1"/>
      <ellipse id="Ellipse_13" data-name="Ellipse 13" cx="8.375" cy="4.18" rx="8.375" ry="4.18" transform="matrix(0.877, 0.319, -0.405, 0.894, 1369.573, 338.509)" fill="#57b894"/>
      <ellipse id="Ellipse_14" data-name="Ellipse 14" cx="8.375" cy="4.18" rx="8.375" ry="4.18" transform="matrix(0.877, 0.319, -0.405, 0.894, 1370.782, 338.202)" fill="none" stroke="#3f3d56" stroke-miterlimit="10" stroke-width="1"/>
      <ellipse id="Ellipse_15" data-name="Ellipse 15" cx="8.375" cy="4.18" rx="8.375" ry="4.18" transform="matrix(0.877, 0.319, -0.405, 0.894, 1351.316, 344.181)" fill="#57b894"/>
      <ellipse id="Ellipse_16" data-name="Ellipse 16" cx="8.375" cy="4.18" rx="8.375" ry="4.18" transform="matrix(0.877, 0.319, -0.405, 0.894, 1352.525, 343.874)" fill="none" stroke="#3f3d56" stroke-miterlimit="10" stroke-width="1"/>
      <ellipse id="Ellipse_17" data-name="Ellipse 17" cx="8.375" cy="4.18" rx="8.375" ry="4.18" transform="matrix(0.877, 0.319, -0.405, 0.894, 1407.181, 342.866)" fill="#57b894"/>
      <ellipse id="Ellipse_18" data-name="Ellipse 18" cx="8.375" cy="4.18" rx="8.375" ry="4.18" transform="matrix(0.877, 0.319, -0.405, 0.894, 1408.39, 342.56)" fill="none" stroke="#3f3d56" stroke-miterlimit="10" stroke-width="1"/>
      <ellipse id="Ellipse_19" data-name="Ellipse 19" cx="8.375" cy="4.18" rx="8.375" ry="4.18" transform="matrix(0.877, 0.319, -0.405, 0.894, 1408.102, 329.018)" fill="#57b894"/>
      <ellipse id="Ellipse_20" data-name="Ellipse 20" cx="8.375" cy="4.18" rx="8.375" ry="4.18" transform="matrix(0.877, 0.319, -0.405, 0.894, 1409.31, 328.711)" fill="none" stroke="#3f3d56" stroke-miterlimit="10" stroke-width="1"/>
      <ellipse id="Ellipse_21" data-name="Ellipse 21" cx="8.375" cy="4.18" rx="8.375" ry="4.18" transform="matrix(0.877, 0.319, -0.405, 0.894, 1361.487, 322.502)" fill="#57b894"/>
      <ellipse id="Ellipse_22" data-name="Ellipse 22" cx="8.375" cy="4.18" rx="8.375" ry="4.18" transform="matrix(0.877, 0.319, -0.405, 0.894, 1362.695, 322.196)" fill="none" stroke="#3f3d56" stroke-miterlimit="10" stroke-width="1"/>
      <ellipse id="Ellipse_23" data-name="Ellipse 23" cx="8.375" cy="4.18" rx="8.375" ry="4.18" transform="matrix(0.877, 0.319, -0.405, 0.894, 1415.797, 376.608)" fill="#57b894"/>
      <ellipse id="Ellipse_24" data-name="Ellipse 24" cx="8.375" cy="4.18" rx="8.375" ry="4.18" transform="matrix(0.877, 0.319, -0.405, 0.894, 1417.006, 376.301)" fill="none" stroke="#3f3d56" stroke-miterlimit="10" stroke-width="1"/>
      <ellipse id="Ellipse_25" data-name="Ellipse 25" cx="8.375" cy="4.18" rx="8.375" ry="4.18" transform="matrix(0.877, 0.319, -0.405, 0.894, 1391.258, 365.437)" fill="#57b894"/>
      <ellipse id="Ellipse_26" data-name="Ellipse 26" cx="8.375" cy="4.18" rx="8.375" ry="4.18" transform="matrix(0.877, 0.319, -0.405, 0.894, 1392.467, 365.13)" fill="none" stroke="#3f3d56" stroke-miterlimit="10" stroke-width="1"/>
      <ellipse id="Ellipse_27" data-name="Ellipse 27" cx="8.375" cy="4.18" rx="8.375" ry="4.18" transform="matrix(0.877, 0.319, -0.405, 0.894, 1356.584, 356.176)" fill="#57b894"/>
      <ellipse id="Ellipse_28" data-name="Ellipse 28" cx="8.375" cy="4.18" rx="8.375" ry="4.18" transform="matrix(0.877, 0.319, -0.405, 0.894, 1357.792, 355.869)" fill="none" stroke="#3f3d56" stroke-miterlimit="10" stroke-width="1"/>
      <ellipse id="Ellipse_29" data-name="Ellipse 29" cx="8.375" cy="4.18" rx="8.375" ry="4.18" transform="matrix(0.877, 0.319, -0.405, 0.894, 1373.76, 363.92)" fill="#57b894"/>
      <ellipse id="Ellipse_30" data-name="Ellipse 30" cx="8.375" cy="4.18" rx="8.375" ry="4.18" transform="matrix(0.877, 0.319, -0.405, 0.894, 1374.968, 363.613)" fill="none" stroke="#3f3d56" stroke-miterlimit="10" stroke-width="1"/>
      <ellipse id="Ellipse_31" data-name="Ellipse 31" cx="8.375" cy="4.18" rx="8.375" ry="4.18" transform="matrix(0.877, 0.319, -0.405, 0.894, 1387.041, 331.43)" fill="#57b894"/>
      <ellipse id="Ellipse_32" data-name="Ellipse 32" cx="8.375" cy="4.18" rx="8.375" ry="4.18" transform="matrix(0.877, 0.319, -0.405, 0.894, 1388.25, 331.124)" fill="none" stroke="#3f3d56" stroke-miterlimit="10" stroke-width="1"/>
      <ellipse id="Ellipse_33" data-name="Ellipse 33" cx="8.375" cy="4.18" rx="8.375" ry="4.18" transform="matrix(0.877, 0.319, -0.405, 0.894, 1409.579, 362.774)" fill="#57b894"/>
      <ellipse id="Ellipse_34" data-name="Ellipse 34" cx="8.375" cy="4.18" rx="8.375" ry="4.18" transform="matrix(0.877, 0.319, -0.405, 0.894, 1410.788, 362.468)" fill="none" stroke="#3f3d56" stroke-miterlimit="10" stroke-width="1"/>
      <ellipse id="Ellipse_35" data-name="Ellipse 35" cx="8.375" cy="4.18" rx="8.375" ry="4.18" transform="matrix(0.877, 0.319, -0.405, 0.894, 1398.766, 375.634)" fill="#57b894"/>
      <ellipse id="Ellipse_36" data-name="Ellipse 36" cx="8.375" cy="4.18" rx="8.375" ry="4.18" transform="matrix(0.877, 0.319, -0.405, 0.894, 1399.974, 375.328)" fill="none" stroke="#3f3d56" stroke-miterlimit="10" stroke-width="1"/>
      <g id="Group_2" data-name="Group 2" transform="matrix(0.877, 0.319, -0.405, 0.894, 1393.09, 401.614)" opacity="0.3">
        <path id="Path_11" data-name="Path 11" d="M4.447-.023c2.474.028,4.49.908,4.5,1.964S6.966,3.831,4.492,3.8,0,2.894-.01,1.838,1.973-.051,4.447-.023Z" transform="matrix(-0.488, -0.873, 0.873, -0.488, 4.415, 9.647)" fill="#57b894"/>
        <path id="Path_12" data-name="Path 12" d="M4.447-.023c2.474.028,4.49.908,4.5,1.964S6.966,3.831,4.492,3.8,0,2.894-.01,1.838,1.973-.051,4.447-.023Z" transform="matrix(-0.488, -0.873, 0.873, -0.488, 4.967, 9.976)" fill="none" stroke="#3f3d56" stroke-width="1"/>
      </g>
      <g id="Group_3" data-name="Group 3" transform="matrix(0.877, 0.319, -0.405, 0.894, 1352.241, 395.274)" opacity="0.3">
        <path id="Path_13" data-name="Path 13" d="M1.843-.012C2.908,0,3.8,2,3.832,4.456s-.8,4.43-1.869,4.415S.007,6.857-.026,4.4.778-.026,1.843-.012Z" transform="translate(2.595 9.37) rotate(-131.828)" fill="#57b894"/>
        <path id="Path_14" data-name="Path 14" d="M1.843-.012C2.908,0,3.8,2,3.832,4.456s-.8,4.43-1.869,4.415S.007,6.857-.026,4.4.778-.026,1.843-.012Z" transform="translate(2.786 8.744) rotate(-131.828)" fill="none" stroke="#3f3d56" stroke-width="1"/>
      </g>
      <g id="Group_4" data-name="Group 4" transform="matrix(0.877, 0.319, -0.405, 0.894, 1395.667, 387.566)" opacity="0.3">
        <path id="Path_15" data-name="Path 15" d="M1.843-.012C2.908,0,3.8,2,3.832,4.456s-.8,4.43-1.869,4.415S.007,6.857-.026,4.4.778-.026,1.843-.012Z" transform="translate(2.595 9.37) rotate(-131.828)" fill="#57b894"/>
        <path id="Path_16" data-name="Path 16" d="M1.843-.012C2.908,0,3.8,2,3.832,4.456s-.8,4.43-1.869,4.415S.007,6.857-.026,4.4.778-.026,1.843-.012Z" transform="translate(2.786 8.744) rotate(-131.828)" fill="none" stroke="#3f3d56" stroke-width="1"/>
      </g>
      <g id="Group_6" data-name="Group 6">
        <path id="Path_1" data-name="Path 1" d="M654.159,529.182s-34.9-4.3-47.11-11.116S504.1,508.027,504.1,529.182s104.34,30.478,104.34,30.478l54.787-3.227Z" transform="matrix(0.877, 0.319, -0.405, 0.894, 1083.352, -200.182)" fill="#fbbebe"/>
        <path id="Path_2" data-name="Path 2" d="M654.159,529.182s-34.9-4.3-47.11-11.116S504.1,508.027,504.1,529.182s104.34,30.478,104.34,30.478l54.787-3.227Z" transform="matrix(0.877, 0.319, -0.405, 0.894, 1083.352, -200.182)" opacity="0.1"/>
        <path id="Path_3" data-name="Path 3" d="M157,527.348l7.328,21.873,114.809,1.434V518.384s-43.969-10.4-78.866,11.833C200.271,530.216,159.094,525.2,157,527.348Z" transform="matrix(0.877, 0.319, -0.405, 0.894, 1511.475, -46.554)" fill="#11bc87"/>
        <path id="Path_4" data-name="Path 4" d="M157,527.232l7.328,21.873,114.809,1.434V518.268s-43.969-10.4-78.866,11.833C200.271,530.1,159.094,525.081,157,527.232Z" transform="matrix(0.877, 0.319, -0.405, 0.894, 1519.442, -58.483)" fill="#5d887a" opacity="0.1"/>
        <path id="Path_17" data-name="Path 17" d="M157,527.232l7.328,21.873,114.809,1.434V518.268s-43.969-10.4-78.866,11.833C200.271,530.1,159.094,525.081,157,527.232Z" transform="matrix(0.877, 0.319, -0.405, 0.894, 1519.442, -58.483)" fill="#5d887a" opacity="0.1"/>
        <path id="Path_6" data-name="Path 6" d="M709.9,562.7s-39.433-20.8-64.907-12.908-61.069-5.737-65.256-1.076-10.12,54.861,40.131,57.729a330.085,330.085,0,0,0,93.173-8.606Z" transform="matrix(0.877, 0.319, -0.405, 0.894, 1030.467, -244.611)" fill="#fbbebe"/>
        <path id="Path_7" data-name="Path 7" d="M171.893,562.2s-15.568-1.012-14.87,4.725,1.4,50.2,5.583,51.275,37.339,1.076,50.949,1.076h76.772V550.536s-54.438-3.33-81.657,10.654C208.669,561.19,175.945,560.7,171.893,562.2Z" transform="matrix(0.877, 0.319, -0.405, 0.894, 1511.288, -71.398)" fill="#11bc87"/>
        <path id="Path_18" data-name="Path 18" d="M157,527.232l7.328,21.873,114.809,1.434V518.268s-43.969-10.4-78.866,11.833C200.271,530.1,159.094,525.081,157,527.232Z" transform="matrix(0.877, 0.319, -0.405, 0.894, 1478.442, 24.517)" fill="#5d887a" opacity="0.1"/>
      </g>
    </g>
  </g>
</svg>
