<svg xmlns="http://www.w3.org/2000/svg" width="215.146" height="61.325" viewBox="0 0 215.146 61.325">
  <g id="Group_8" data-name="Group 8" transform="translate(-166.854 -72.675)">
    <g id="Group_1" data-name="Group 1" transform="translate(18.243 45.736)">
      <path id="Path_1" data-name="Path 1" d="M284.935,58.293l-3.881-13.686c-2.918-10.287-1.208-22.346,3.728-29.327a132.16,132.16,0,0,0,8.7-14L294.162,0l1.59,3.583A62.616,62.616,0,0,1,300.1,17.47Z" transform="translate(-131.016 26.939)" fill="#67b7a7"/>
      <path id="Path_2" data-name="Path 2" d="M953.348,913.828l-.517-4.406c-2.555,10.271-9.111,15.728-12.866,22.814a197.421,197.421,0,0,0-10.324,22.814h3.89c17.289,0,22.319-19.9,19.817-41.222Z" transform="translate(-775.721 -869.818)" fill="#67b7a7"/>
      <path id="Path_3" data-name="Path 3" d="M952.823,909.422l-.942.643a61.629,61.629,0,0,1-7.086,4.163h0q-2.144,1.078-4.318,1.987c-6.227,2.619-10.844,12.207-10.844,23.633v15.2S945.8,937.653,952.823,909.422Z" transform="translate(-775.713 -869.818)" fill="#73c9ae"/>
    </g>
    <text id="securefarmer" transform="translate(222 122)" fill="#496c65" stroke="#f7f7f7" stroke-width="1" font-size="24" font-family="LaoMN-Bold, Lao MN" font-weight="700"><tspan x="0" y="0">securefarmer</tspan></text>
  </g>
</svg>
