<svg xmlns="http://www.w3.org/2000/svg" width="480" height="480.233" viewBox="0 0 480 480.233">
  <path id="labour" d="M488,248H357.179A111.333,111.333,0,0,0,368,200h16c32.014-1.361,31.753-47.024-.243-48a128.455,128.455,0,0,0-2-16c5.375.555,10.089-2.243,10.248-8V80a8,8,0,0,0-8-8H360V48a8,8,0,0,0-3.2-6.4C273.882-9.449,128.747,8.916,120.128,153.326c-16.337,5.379-21.73,27.389-9.094,39.661A23.882,23.882,0,0,0,128,200h16a111.334,111.334,0,0,0,10.821,48H80a368.574,368.574,0,0,1,23.49-133.191,8,8,0,0,0-13.147-8.466A199.389,199.389,0,0,0,32.128,240H24a8,8,0,0,0-8,8v48a8,8,0,0,0,8,8h8.128A199.389,199.389,0,0,0,90.343,437.657a8,8,0,0,0,13.147-8.466A368.574,368.574,0,0,1,80,296H198.369a111.8,111.8,0,0,0,13.536,6.947A31.95,31.95,0,0,0,199.778,328v40c.175,7.278-.8,20.4,1.672,27.236L192,404.683a16.03,16.03,0,0,0-2.819,18.818L154.34,458.343a8,8,0,0,0,0,11.314l24,24A8,8,0,0,0,184,496h40a8,8,0,0,0,8-8v-8a8,8,0,0,0-2.343-5.657L227.313,472l5.185-5.184a16.022,16.022,0,0,0,7.5,1.861V488a8,8,0,0,0,8,8h63.778a8,8,0,0,0,8-8v-8a24.041,24.041,0,0,0-16-22.629V445.835a16,16,0,0,0,8-13.835V401.831c.527-14.62-.269-43.32,0-57.831H344a32.036,32.036,0,0,0,32-32V296H488a8,8,0,0,0,8-8V256A8,8,0,0,0,488,248ZM360,272v8H344v-8C344.277,261.45,359.725,261.454,360,272ZM215.778,383.778V376h16v24a8,8,0,0,0,7.777,7.989,24.246,24.246,0,0,1-23.777-24.211ZM252.686,200,264,211.314v41.372l-18.342-18.343-16-16a14.648,14.648,0,0,1-1.9-18.343Zm28.61,92.611c-23.955,6.863-52.317,3.016-73.17-9.423L240,251.315ZM247.78,312h16v48h-16Zm0,64h16v8a8.009,8.009,0,0,1-8,8h-8Zm-16-16h-16V328a16.019,16.019,0,0,1,16-16ZM240,408h15.778a24.027,24.027,0,0,0,24-24v-8h16v56H248V416A8,8,0,0,0,240,408Zm55.778-80v32h-16V312a16.018,16.018,0,0,1,16,16ZM328,287.962,327.89,296H313.63A112.519,112.519,0,0,0,328,285.717Zm12.641-42.7A19.423,19.423,0,0,0,328,246.42a19.347,19.347,0,0,0-21.657,3.923c-7.27,7.653,3.664,18.583,11.314,11.314a3.242,3.242,0,0,1,4.686,0,7.959,7.959,0,0,0,5.166,2.319,96.532,96.532,0,0,1-29.759,22.46L280,268.685v-57.37L291.314,200H352a95.418,95.418,0,0,1-11.359,45.26ZM376,115.332A127.018,127.018,0,0,0,361.821,88H376ZM128,184c-10.544-.246-10.556-15.726,0-16h56c10.531-.258,10.565-15.732,0-16H144.287a111.766,111.766,0,0,1,28.23-66.665c4.627-4.827.781-13.429-5.805-13.328C211.974,15.357,305.089,29.048,344,52.354V67.069a128.3,128.3,0,0,0-36.8-24.415,8,8,0,1,0-6.4,14.663c37.524,16.048,64.5,53.917,66.908,94.683H328c-10.54.267-10.559,15.729,0,16h56c10.534.237,10.563,15.728,0,16Zm60.686,16,40,40-33.9,33.9A95.842,95.842,0,0,1,160,200ZM48,296.8a8.085,8.085,0,0,0-8-8.8H32V256h8a8,8,0,0,0,8-8,182.086,182.086,0,0,1,27.656-97.721C66.839,184.63,63.366,220.348,64,256c-.579,45.714-.414,93.533,11.656,137.721A182,182,0,0,1,48,296.8ZM80,264h84.141A112.89,112.89,0,0,0,177.7,280H80ZM232,423.2c-.055,9.394-1.068,17.087,8,22.634v6.845h0c-2.531-2.534-34.151-34.147-36.68-36.686l6.116-6.116A40.239,40.239,0,0,0,232,423.2ZM187.313,480l-16-16L200,435.313,220.686,456l-10.343,10.343a8,8,0,0,0,0,11.314L212.687,480ZM256,480V448h31.778v16a8,8,0,0,0,8,8,8.009,8.009,0,0,1,8,8ZM360,312a16.019,16.019,0,0,1-16,16H311.778a31.8,31.8,0,0,0-4.3-16H335.78a8,8,0,0,0,8-7.892l.112-8.108H360Zm120-32H376c-.05-4.708.445-11.653-1.376-16H480ZM328,216c10.549.266,10.551,15.732,0,16C317.451,231.734,317.449,216.268,328,216Z" transform="translate(-16 -15.767)" fill="#2a8859"/>
</svg>
