<svg xmlns="http://www.w3.org/2000/svg" width="512" height="390" viewBox="0 0 512 390">
  <g id="mail" transform="translate(0 -61)">
    <g id="Group_5" data-name="Group 5">
      <path id="Path_14" data-name="Path 14" d="M467,61H45A45.077,45.077,0,0,0,0,106V406a45.073,45.073,0,0,0,45,45H467a45.073,45.073,0,0,0,45-45V106A45.073,45.073,0,0,0,467,61Zm-6.214,30L256.954,294.833,51.359,91ZM30,399.788V112.069l144.479,143.24ZM51.213,421l144.57-144.57,50.657,50.222a15,15,0,0,0,21.167-.046L317,277.213,460.787,421ZM482,399.787,338.213,256,482,112.212Z" fill="#2a8859"/>
    </g>
  </g>
</svg>
