<svg xmlns="http://www.w3.org/2000/svg" width="414" height="33" viewBox="0 0 414 33">
  <g id="Group_3" data-name="Group 3" transform="translate(-145 -268)">
    <g id="Rectangle_1" data-name="Rectangle 1" transform="translate(145 268)" fill="#fff" stroke="#b5b7b6" stroke-width="1">
      <rect width="414" height="2" stroke="none"/>
      <rect x="0.5" y="0.5" width="413" height="1" fill="none"/>
    </g>
    <g id="Group_1" data-name="Group 1">
      <g id="Rectangle_2" data-name="Rectangle 2" transform="translate(163 281)" fill="#fff" stroke="#b5b7b6" stroke-width="1">
        <rect width="2" height="20" stroke="none"/>
        <rect x="0.5" y="0.5" width="1" height="19" fill="none"/>
      </g>
      <g id="Rectangle_3" data-name="Rectangle 3" transform="translate(196 281)" fill="#fff" stroke="#b5b7b6" stroke-width="1">
        <rect width="2" height="20" stroke="none"/>
        <rect x="0.5" y="0.5" width="1" height="19" fill="none"/>
      </g>
      <g id="Rectangle_4" data-name="Rectangle 4" transform="translate(229 281)" fill="#fff" stroke="#b5b7b6" stroke-width="1">
        <rect width="2" height="20" stroke="none"/>
        <rect x="0.5" y="0.5" width="1" height="19" fill="none"/>
      </g>
      <g id="Rectangle_5" data-name="Rectangle 5" transform="translate(262 281)" fill="#fff" stroke="#b5b7b6" stroke-width="1">
        <rect width="2" height="20" stroke="none"/>
        <rect x="0.5" y="0.5" width="1" height="19" fill="none"/>
      </g>
      <g id="Rectangle_6" data-name="Rectangle 6" transform="translate(295 281)" fill="#fff" stroke="#b5b7b6" stroke-width="1">
        <rect width="2" height="20" stroke="none"/>
        <rect x="0.5" y="0.5" width="1" height="19" fill="none"/>
      </g>
      <g id="Rectangle_7" data-name="Rectangle 7" transform="translate(328 281)" fill="#fff" stroke="#b5b7b6" stroke-width="1">
        <rect width="2" height="20" stroke="none"/>
        <rect x="0.5" y="0.5" width="1" height="19" fill="none"/>
      </g>
    </g>
    <g id="Group_2" data-name="Group 2" transform="translate(198)">
      <g id="Rectangle_2-2" data-name="Rectangle 2" transform="translate(163 281)" fill="#fff" stroke="#b5b7b6" stroke-width="1">
        <rect width="2" height="20" stroke="none"/>
        <rect x="0.5" y="0.5" width="1" height="19" fill="none"/>
      </g>
      <g id="Rectangle_3-2" data-name="Rectangle 3" transform="translate(196 281)" fill="#fff" stroke="#b5b7b6" stroke-width="1">
        <rect width="2" height="20" stroke="none"/>
        <rect x="0.5" y="0.5" width="1" height="19" fill="none"/>
      </g>
      <g id="Rectangle_4-2" data-name="Rectangle 4" transform="translate(229 281)" fill="#fff" stroke="#b5b7b6" stroke-width="1">
        <rect width="2" height="20" stroke="none"/>
        <rect x="0.5" y="0.5" width="1" height="19" fill="none"/>
      </g>
      <g id="Rectangle_5-2" data-name="Rectangle 5" transform="translate(262 281)" fill="#fff" stroke="#b5b7b6" stroke-width="1">
        <rect width="2" height="20" stroke="none"/>
        <rect x="0.5" y="0.5" width="1" height="19" fill="none"/>
      </g>
      <g id="Rectangle_6-2" data-name="Rectangle 6" transform="translate(295 281)" fill="#fff" stroke="#b5b7b6" stroke-width="1">
        <rect width="2" height="20" stroke="none"/>
        <rect x="0.5" y="0.5" width="1" height="19" fill="none"/>
      </g>
      <g id="Rectangle_7-2" data-name="Rectangle 7" transform="translate(328 281)" fill="#fff" stroke="#b5b7b6" stroke-width="1">
        <rect width="2" height="20" stroke="none"/>
        <rect x="0.5" y="0.5" width="1" height="19" fill="none"/>
      </g>
    </g>
  </g>
</svg>
