<svg xmlns="http://www.w3.org/2000/svg" width="405.131" height="512" viewBox="0 0 405.131 512">
  <path id="notification" d="M450.2,407.453c-1.505-.977-12.832-8.912-24.174-32.917-20.829-44.082-25.2-106.18-25.2-150.511,0-.193,0-.384-.011-.576A145.272,145.272,0,0,0,315.3,91.693V57.036A57.053,57.053,0,0,0,258.359,0H253.64A57.053,57.053,0,0,0,196.7,57.036V91.691a145.274,145.274,0,0,0-85.525,132.334c0,44.331-4.372,106.428-25.2,150.511-11.341,24-22.668,31.939-24.174,32.917a14.582,14.582,0,0,0-8.01,16.586c1.473,6.939,7.959,11.723,15.042,11.723H178.777a77.229,77.229,0,0,0,154.446,0H443.17c7.082,0,13.569-4.784,15.042-11.723A14.584,14.584,0,0,0,450.2,407.453ZM226.7,57.036a27,27,0,0,1,26.942-26.987h4.719A27,27,0,0,1,285.3,57.036V81.953a145.279,145.279,0,0,0-58.6,0V57.036ZM256,481.951a47.334,47.334,0,0,1-47.223-46.188h94.445A47.333,47.333,0,0,1,256,481.951Zm60.4-76.239H103.015a157.224,157.224,0,0,0,7.861-13.8c20.1-39.643,30.3-96.129,30.3-167.889,0-63.417,51.509-115.01,114.821-115.01s114.821,51.593,114.821,115.06c0,.185,0,.369.01.553.057,71.472,10.25,127.755,30.3,167.286a157.338,157.338,0,0,0,7.861,13.8Z" transform="translate(-53.434)" fill="#2a8859"/>
</svg>
