<svg xmlns="http://www.w3.org/2000/svg" width="478.984" height="477.952" viewBox="0 0 478.984 477.952">
  <g id="payment" transform="translate(0 -0.516)">
    <g id="Group_29" data-name="Group 29">
      <g id="Group_28" data-name="Group 28">
        <rect id="Rectangle_27" data-name="Rectangle 27" width="48" height="16" transform="translate(344 319.492)" fill="#516159"/>
        <rect id="Rectangle_28" data-name="Rectangle 28" width="48" height="16" transform="translate(280 319.492)" fill="#516159"/>
        <rect id="Rectangle_29" data-name="Rectangle 29" width="48" height="16" transform="translate(216 319.492)" fill="#516159"/>
        <path id="Path_11" data-name="Path 11" d="M471.9,165.916,313.6,7.6A23.9,23.9,0,0,0,296.592.516h-.072A23.671,23.671,0,0,0,279.648,7.6l-167.92,167.9H24a24,24,0,0,0-24,24v224a24,24,0,0,0,24,24H142.528l23.872,23.9a23.9,23.9,0,0,0,17.008,7.08h.064a23.681,23.681,0,0,0,16.88-7.08l23.92-23.9H408a24,24,0,0,0,24-24V239.764l39.856-39.856a23.873,23.873,0,0,0,.04-33.992ZM370.128,86.772l-88.72,88.72H213.472L336.16,52.8Zm-79.152-67.9a7.888,7.888,0,0,1,11.155-.133c.045.044.09.088.133.133l22.584,22.616-134.008,134H134.352ZM189.024,460.108a7.783,7.783,0,0,1-5.6,2.4,8,8,0,0,1-5.7-2.4L165.16,447.492h36.488ZM416,423.492a8,8,0,0,1-8,8H24a8,8,0,0,1-8-8v-112H416Zm0-128H16v-48H416Zm0-64H16v-32a8,8,0,0,1,8-8H408a8,8,0,0,1,8,8Zm44.584-42.936h0L432,217.14V199.492a24,24,0,0,0-24-24H304l77.408-77.408,79.144,79.144a8,8,0,0,1,2.4,5.72A7.843,7.843,0,0,1,460.584,188.556Z" fill="#516159"/>
        <path id="Path_12" data-name="Path 12" d="M76.728,415.708A31.985,31.985,0,0,0,80,412.436a31.72,31.72,0,0,0,42.112,5.424A32.529,32.529,0,0,0,136,391.492a32,32,0,0,0-32-32,24.264,24.264,0,0,0-4.736.4l-.208.056h-.232A31.588,31.588,0,0,0,80,370.572a32,32,0,1,0-3.272,45.136Zm25.248-40.048a9.673,9.673,0,0,1,2.024-.168,16,16,0,0,1,16,16,15.689,15.689,0,0,1-3.144,9.384c-.288.392-.512.8-.84,1.208-.056.064-.136.1-.2.168a15.9,15.9,0,1,1-13.84-26.592ZM56,375.492a16,16,0,1,1-16,16A16,16,0,0,1,56,375.492Z" fill="#516159"/>
      </g>
    </g>
  </g>
</svg>
