<svg xmlns="http://www.w3.org/2000/svg" xmlns:xlink="http://www.w3.org/1999/xlink" width="1952" height="1080" viewBox="0 0 1952 1080">
  <defs>
    <clipPath id="clip-path">
      <rect id="Rectangle_1" data-name="Rectangle 1" width="1952" height="1080" transform="translate(-32)" fill="#fff" stroke="#707070" stroke-width="1"/>
    </clipPath>
  </defs>
  <g id="Mask_Group_1" data-name="Mask Group 1" transform="translate(32)" clip-path="url(#clip-path)">
    <g id="undraw_arrived_f58d" transform="translate(266.25 0)">
      <circle id="Ellipse_1" data-name="Ellipse 1" cx="43.645" cy="43.645" r="43.645" transform="translate(973.247 34.044)" fill="#2f2e41"/>
      <path id="Path_1" data-name="Path 1" d="M1094.856,154.237s-6.313,79.5-13.888,79.5,88.381-3.741,88.381-3.741-40.4-52.376-20.2-69.21S1094.856,154.237,1094.856,154.237Z" transform="translate(-108.807 -49.918)" fill="#9f616a"/>
      <path id="Path_2" data-name="Path 2" d="M1094.856,154.237s-6.313,79.5-13.888,79.5,88.381-3.741,88.381-3.741-40.4-52.376-20.2-69.21S1094.856,154.237,1094.856,154.237Z" transform="translate(-108.807 -49.918)" opacity="0.1"/>
      <path id="Path_3" data-name="Path 3" d="M918.306,1068.361A379.515,379.515,0,1,1,1186.662,957.2,379.516,379.516,0,0,1,918.306,1068.361Zm0-755.095c-207.1,0-375.581,168.485-375.581,375.581s168.485,375.581,375.581,375.581,375.581-168.485,375.581-375.581S1125.4,313.266,918.306,313.266Z" transform="translate(-108.807 -49.918)" fill="#3f3d56"/>
      <path id="Path_4" data-name="Path 4" d="M1208.221,328.172,1164.1,340.8l61.623-2.811a54.26,54.26,0,0,1,38.043,12.8c10.979,9.5,19.828,24.58,11.307,46.866-17.042,44.572-43.261,86.521-43.261,86.521l-17.042,32.773s-35.4,5.244-36.706-5.244,0-15.731,6.555-20.975,10.487-15.731,10.487-20.975-1.311-10.487,2.622-13.109,5.244-6.555,5.244-14.42,22.741-42.435,22.741-42.435-47.649-16.557-68.168-2.622-62.069,75.208-62.069,75.208a39.451,39.451,0,0,0-6.774,9.624,34.017,34.017,0,0,1-8.569,10.658c-3.812,3.35-.3,12.578.923,13.8,1.311,1.311,14.42,53.748,14.42,53.748s14.42,24.908-1.311,26.219-30.151,2.622-31.462,0a71.262,71.262,0,0,0-5.244-10.487c-3.933-6.555,0-20.975,0-20.975s-38.017-48.5-26.219-78.656,36.706-98.32,36.706-98.32l38.017-15.731,69.479-24.908Z" transform="translate(-108.807 -49.918)" fill="#44a587"/>
      <path id="Path_5" data-name="Path 5" d="M943.413,186.591,889.665,176.1s-13.109-44.572-28.84-39.328,10.487,49.815,10.487,49.815l74.723,34.084Z" transform="translate(-108.807 -49.918)" fill="#a0616a"/>
      <path id="Path_6" data-name="Path 6" d="M1269.835,231.163l23.6,30.151s34.084-1.311,23.6,17.042-34.084,7.866-35.4,3.933-39.328-38.017-39.328-38.017Z" transform="translate(-108.807 -49.918)" fill="#a0616a"/>
      <path id="Path_7" data-name="Path 7" d="M1147.063,191.35l-34.084,26.219L1092,186.106l-162.555-9.176v53.748c40-11.551,76.827-15.129,106.185,0,37.159,49.48,45.335,103.211,21.83,161.589l191.851-67.2c-57.5-21.412-84.193-52.453-76.034-94.387l66.857,23.6,40.639-30.151C1244.437,199.669,1190.352,184.332,1147.063,191.35Z" transform="translate(-108.807 -49.918)" fill="#58e5b9"/>
      <ellipse id="Ellipse_2" data-name="Ellipse 2" cx="677.75" cy="51.126" rx="677.75" ry="51.126" transform="translate(0 977.748)" fill="#44a587"/>
      <ellipse id="Ellipse_3" data-name="Ellipse 3" cx="458.17" cy="34.084" rx="458.17" ry="34.084" transform="translate(30.151 993.479)" opacity="0.1"/>
      <path id="Path_8" data-name="Path 8" d="M1334.738,1009.394c-4.367,38.266,19.158,72.376,19.158,72.376s30.605-27.932,34.973-66.2S1369.71,943.2,1369.71,943.2,1339.1,971.127,1334.738,1009.394Z" transform="translate(-108.807 -49.918)" fill="#2f2e41"/>
      <path id="Path_9" data-name="Path 9" d="M1351.422,1007.419c15.741,35.151,3.639,74.78,3.639,74.78s-37.623-17.363-53.363-52.514-3.639-74.78-3.639-74.78S1335.681,972.268,1351.422,1007.419Z" transform="translate(-108.807 -49.918)" fill="#6c63ff"/>
      <circle id="Ellipse_4" data-name="Ellipse 4" cx="146.897" cy="146.897" r="146.897" transform="translate(673.166 733.062)" fill="#f2f2f2"/>
      <path id="Path_10" data-name="Path 10" d="M928.87,703.409l-36.188,90.47-130.855,1.049-42.629.344-101.163.814-42.611.344-101.163.814-42.611.344-101.163.832-42.611.344-68.286.543L206.38,772.274l-17.135-35.012-9.463-19.378-5.428-14.475,32.479-102.864a49.588,49.588,0,0,1,47.279-34.65H845.023a49.6,49.6,0,0,1,46.7,32.967l3.764,10.6Z" transform="translate(-108.807 -49.918)" fill="#44a587"/>
      <rect id="Rectangle_2" data-name="Rectangle 2" width="754.516" height="189.987" transform="translate(65.546 653.493)" fill="#6c63ff"/>
      <rect id="Rectangle_3" data-name="Rectangle 3" width="754.516" height="189.987" transform="translate(65.546 653.493)" fill="#58e5b9" opacity="0.1"/>
      <rect id="Rectangle_4" data-name="Rectangle 4" width="22.257" height="22.257" transform="translate(808.934 392.528)" fill="#3f3d56"/>
      <rect id="Rectangle_5" data-name="Rectangle 5" width="22.257" height="22.257" transform="translate(869.029 868.831)" fill="#3f3d56"/>
      <rect id="Rectangle_6" data-name="Rectangle 6" width="483.108" height="607.956" transform="translate(200.346 408.318)" fill="#f2f2f2"/>
      <rect id="Rectangle_7" data-name="Rectangle 7" width="141.133" height="19.903" transform="translate(301.672 451.744)" fill="#3f3d56"/>
      <rect id="Rectangle_8" data-name="Rectangle 8" width="425.207" height="9.047" transform="translate(227.487 533.166)" fill="#e6e6e6"/>
      <rect id="Rectangle_9" data-name="Rectangle 9" width="425.207" height="9.047" transform="translate(227.487 562.117)" fill="#e6e6e6"/>
      <rect id="Rectangle_10" data-name="Rectangle 10" width="425.207" height="9.047" transform="translate(227.487 591.067)" fill="#e6e6e6"/>
      <rect id="Rectangle_11" data-name="Rectangle 11" width="425.207" height="9.047" transform="translate(227.487 620.017)" fill="#e6e6e6"/>
      <rect id="Rectangle_12" data-name="Rectangle 12" width="425.207" height="9.047" transform="translate(227.487 648.967)" fill="#e6e6e6"/>
      <rect id="Rectangle_13" data-name="Rectangle 13" width="425.207" height="9.047" transform="translate(227.487 677.918)" fill="#e6e6e6"/>
      <path id="Path_11" data-name="Path 11" d="M354.388,537.849a30.76,30.76,0,1,1,30.76-30.76A30.76,30.76,0,0,1,354.388,537.849Zm0-57.9a27.141,27.141,0,1,0,27.141,27.141A27.141,27.141,0,0,0,354.388,479.949Z" transform="translate(-108.807 -49.918)" fill="#6c63ff"/>
      <path id="Path_12" data-name="Path 12" d="M820.063,1031.654H65.546V653.491l97.707,75.995,562.72-3.62,94.089-72.375Z" fill="#44a587"/>
      <rect id="Rectangle_14" data-name="Rectangle 14" width="141.133" height="19.903" transform="translate(104.448 943.898)" fill="#f2f2f2"/>
      <path id="Path_13" data-name="Path 13" d="M287.319,956.442a15.731,15.731,0,1,1,15.731-15.731,15.731,15.731,0,0,1-15.731,15.731Zm0-28.84a13.109,13.109,0,1,0,13.109,13.109A13.109,13.109,0,0,0,287.319,927.6Z" transform="translate(-108.807 -49.918)" fill="#fff"/>
      <path id="Path_14" data-name="Path 14" d="M1210.843,510.391s7.865,30.151,10.487,31.462,31.462,26.219,11.8,30.151-34.084,2.622-38.017-1.311-2.622-7.866-9.177-9.177-18.353-5.244-17.042-14.42,7.866-34.084,11.8-36.706S1210.843,510.391,1210.843,510.391Z" transform="translate(-108.807 -49.918)" fill="#2f2e41"/>
      <path id="Path_15" data-name="Path 15" d="M1096.792,577.248s11.8,9.177,5.244,26.219-15.731,35.4-15.731,35.4-10.487,32.773-27.529,27.53c-6.923-2.13-10.385-7.939-12.055-14.085a33.686,33.686,0,0,1,4.761-27.411l9.916-14.874,10.487-27.53Z" transform="translate(-108.807 -49.918)" fill="#2f2e41"/>
      <path id="Path_16" data-name="Path 16" d="M1068.02,704.166c23.5,0,52.574-7.785,80.908-35.922,69.361-68.888,135.257-75.8,135.915-75.859l-.244-2.612c-.667.063-67.5,7.067-137.519,76.609-35.98,35.734-73.118,37.924-97.936,33.465a122.392,122.392,0,0,1-45.881-18.491l-1.549,2.115a125.124,125.124,0,0,0,46.863,18.938A109.466,109.466,0,0,0,1068.02,704.166Z" transform="translate(-108.807 -49.918)" fill="#2f2e41"/>
      <circle id="Ellipse_5" data-name="Ellipse 5" cx="15.731" cy="15.731" r="15.731" transform="translate(1124.977 566.003)" fill="#2f2e41"/>
      <circle id="Ellipse_6" data-name="Ellipse 6" cx="15.731" cy="15.731" r="15.731" transform="translate(1013.548 639.415)" fill="#2f2e41"/>
      <circle id="Ellipse_7" data-name="Ellipse 7" cx="31.457" cy="31.457" r="31.457" transform="translate(981.899 70.947)" fill="#a0616a"/>
      <path id="Path_17" data-name="Path 17" d="M1148.481,49.918a23.858,23.858,0,0,1-13.766,9.463c-9.626,2.578-.079,17.043-.079,17.043s-3.472-5.26,1.536-10.831S1149.238,56.214,1148.481,49.918Z" transform="translate(-108.807 -49.918)" fill="#2f2e41"/>
      <circle id="Ellipse_8" data-name="Ellipse 8" cx="12.163" cy="12.163" r="12.163" transform="translate(1011.96 17.813)" fill="#2f2e41"/>
      <path id="Path_18" data-name="Path 18" d="M1148.46,90.089c-9.916-3.751-26.427-5.652-34.921-4.352l1.165-8.507c8.166,4.221,24.6,6.2,34.921,4.352Z" transform="translate(-108.807 -49.918)" fill="#3f3d56"/>
      <path id="Path_19" data-name="Path 19" d="M1126.651,99.689s-12.427,20.671-41.325,28.409-.236,51.163-.236,51.163-10.422-15.791,4.61-32.514S1128.925,118.591,1126.651,99.689Z" transform="translate(-108.807 -49.918)" fill="#2f2e41"/>
      <path id="Path_20" data-name="Path 20" d="M1127.637,98.433s11.938,28.392,25.045,31.076,12.113,47.547-8.384,54.274c0,0,14.946-26.3,2.171-43.939S1125.624,108.263,1127.637,98.433Z" transform="translate(-108.807 -49.918)" fill="#2f2e41"/>
    </g>
  </g>
</svg>
