<svg id="gear_1_" data-name="gear (1)" xmlns="http://www.w3.org/2000/svg" width="496" height="496" viewBox="0 0 496 496">
  <g id="Group_2" data-name="Group 2">
    <g id="Group_1" data-name="Group 1">
      <path id="Path_9" data-name="Path 9" d="M488,200H450.4a205.93,205.93,0,0,0-25.384-61.168l26.6-26.6a8,8,0,0,0,0-11.312L395.08,44.352a8,8,0,0,0-11.312,0l-26.608,26.6A205.714,205.714,0,0,0,296,45.6V8a8,8,0,0,0-8-8H208a8,8,0,0,0-8,8V45.6a205.7,205.7,0,0,0-61.16,25.384L112.232,44.352a8,8,0,0,0-11.312,0L44.352,100.92a8,8,0,0,0,0,11.312l26.6,26.6A205.924,205.924,0,0,0,45.6,200H8a8,8,0,0,0-8,8v80a8,8,0,0,0,8,8H45.6a205.93,205.93,0,0,0,25.384,61.168l-26.632,26.6a8,8,0,0,0,0,11.312l56.568,56.568a8.232,8.232,0,0,0,11.312,0l26.6-26.6A205.924,205.924,0,0,0,200,450.4V488a8,8,0,0,0,8,8h80a8,8,0,0,0,8-8V450.4a205.93,205.93,0,0,0,61.168-25.384l26.6,26.6a8,8,0,0,0,11.312,0l56.568-56.568a8,8,0,0,0,0-11.312l-26.6-26.6A205.91,205.91,0,0,0,450.4,296H488a8,8,0,0,0,8-8V208A8,8,0,0,0,488,200Zm-8,80H444a8,8,0,0,0-7.84,6.4,190.066,190.066,0,0,1-28,67.44,8,8,0,0,0,1.008,10.08l25.5,25.5-45.256,45.256-25.5-25.5a8,8,0,0,0-10.08-1.008,190.066,190.066,0,0,1-67.44,28A8,8,0,0,0,280,444v36H216V444a8,8,0,0,0-6.4-7.84,190.065,190.065,0,0,1-67.44-28,8,8,0,0,0-10.08,1.008l-25.5,25.5L61.32,389.424l25.5-25.5a8,8,0,0,0,1.008-10.08,190.066,190.066,0,0,1-28-67.44A8,8,0,0,0,52,280H16V216H52a8,8,0,0,0,7.84-6.4,190.066,190.066,0,0,1,28-67.44,8,8,0,0,0-1.008-10.08l-25.512-25.5L106.576,61.32l25.5,25.5a8,8,0,0,0,10.08,1.008,190.127,190.127,0,0,1,67.432-28A8,8,0,0,0,216,52V16h64V52a8,8,0,0,0,6.4,7.84,190.127,190.127,0,0,1,67.432,28,8,8,0,0,0,10.08-1.008l25.5-25.5,45.256,45.256-25.5,25.5a8,8,0,0,0-1.008,10.08,190.065,190.065,0,0,1,28,67.44A8,8,0,0,0,444,216h36Z" fill="#2a8859"/>
    </g>
  </g>
  <g id="Group_4" data-name="Group 4">
    <g id="Group_3" data-name="Group 3">
      <path id="Path_10" data-name="Path 10" d="M248,160a88,88,0,1,0,88,88A88,88,0,0,0,248,160Zm0,160a72,72,0,1,1,72-72A72,72,0,0,1,248,320Z" fill="#2a8859"/>
    </g>
  </g>
</svg>
