<svg xmlns="http://www.w3.org/2000/svg" xmlns:xlink="http://www.w3.org/1999/xlink" width="178.389" height="592" viewBox="0 0 178.389 592">
  <defs>
    <linearGradient id="linear-gradient" x1="0.906" y1="0.957" x2="-0.325" y2="1.053" gradientUnits="objectBoundingBox">
      <stop offset="0" stop-color="#355740"/>
      <stop offset="1" stop-color="#0b110d"/>
    </linearGradient>
  </defs>
  <g id="Subtraction_1" data-name="Subtraction 1" transform="translate(0 -7)" fill="url(#linear-gradient)">
    <path d="M 176.3516235351562 598.50048828125 L 0.5000657439231873 598.50048828125 L 0.5000657439231873 7.500258922576904 L 176.3498840332031 7.500258922576904 C 166.2938690185547 12.95053005218506 157.7920532226562 20.91183853149414 151.6778411865234 30.62710571289062 C 145.0196075439453 41.20671844482422 141.5002136230469 53.43841171264648 141.5002136230469 65.99971771240234 L 141.5002136230469 540 C 141.5002136230469 552.561279296875 145.0199127197266 564.7930908203125 151.6787567138672 575.3731079101562 C 157.7932586669922 585.08837890625 166.2952423095703 593.0498657226562 176.3516235351562 598.50048828125 Z" stroke="none"/>
    <path d="M 174.4375915527344 598.00048828125 C 165.0361480712891 592.5509033203125 157.0732727050781 584.8831787109375 151.2555999755859 575.6394653320312 C 144.5464477539062 564.9795532226562 141.0002136230469 552.6556396484375 141.0002136230469 540 L 141.0002136230469 65.99971771240234 C 141.0002136230469 53.34402847290039 144.546142578125 41.02025985717773 151.2546844482422 30.36079788208008 C 157.0720977783203 21.11716270446777 165.0348358154297 13.44950008392334 174.435791015625 8.000258445739746 L 1.000065803527832 8.000258445739746 L 1.000065803527832 598.00048828125 L 174.4375915527344 598.00048828125 M 178.388916015625 599.00048828125 L 178.3845977783203 599.00048828125 L 178.388916015625 599.00048828125 Z M 178.388916015625 599.00048828125 L 6.576302985195071e-05 599.00048828125 L 6.576302985195071e-05 7.000258922576904 L 178.3871459960938 7.000258922576904 C 167.6212158203125 12.41410446166992 158.5315246582031 20.67556571960449 152.1009826660156 30.89341354370117 C 145.4930725097656 41.39310455322266 142.0002136230469 53.53264236450195 142.0002136230469 65.99971771240234 L 142.0002136230469 540 C 142.0002136230469 552.4668579101562 145.4933013916016 564.6065673828125 152.1019134521484 575.1068115234375 C 158.5312194824219 585.322265625 167.6198425292969 593.5839233398438 178.3850708007812 598.9985961914062 L 178.388916015625 599.00048828125 Z" stroke="none" fill="#31503b"/>
  </g>
</svg>
