<svg id="tractor" xmlns="http://www.w3.org/2000/svg" width="512" height="420" viewBox="0 0 512 420">
  <path id="Path_15" data-name="Path 15" d="M120,180A120,120,0,1,0,240,300,120.136,120.136,0,0,0,120,180Zm0,210a90,90,0,1,1,90-90A90.1,90.1,0,0,1,120,390Zm0,0" fill="#2a8859"/>
  <path id="Path_16" data-name="Path 16" d="M120,255a45,45,0,1,0,45,45A45.052,45.052,0,0,0,120,255Zm0,60a15,15,0,1,1,15-15A15.019,15.019,0,0,1,120,315Zm0,0" fill="#2a8859"/>
  <path id="Path_17" data-name="Path 17" d="M482,262.98V210a60.066,60.066,0,0,0-60-60H392V75a15.019,15.019,0,0,1,15-15V30a45.052,45.052,0,0,0-45,45v75H296.16l-36-120H285V0H45V30H75v95.738a180.041,180.041,0,0,0-69.551,35.41l19.1,23.133A150.229,150.229,0,0,1,120,150c82.711,0,150,67.289,150,150v45h63.258A90,90,0,1,0,482,262.98ZM105,120.637V30H228.84l36,120H219.383A178.947,178.947,0,0,0,120,120Q112.471,120,105,120.637ZM254.039,180H422a30.033,30.033,0,0,1,30,30v35.148A89.608,89.608,0,0,0,422,240H289.7A180.166,180.166,0,0,0,254.039,180Zm43.445,90h57.5a89.73,89.73,0,0,0-21.723,45H300V300A180.039,180.039,0,0,0,297.484,270ZM422,390a60,60,0,1,1,60-60A60.066,60.066,0,0,1,422,390Zm0,0" fill="#2a8859"/>
  <path id="Path_18" data-name="Path 18" d="M437,330a15,15,0,1,1-15-15A15,15,0,0,1,437,330Zm0,0" fill="#2a8859"/>
</svg>
