<svg xmlns="http://www.w3.org/2000/svg" width="480.024" height="480.24" viewBox="0 0 480.024 480.24">
  <g id="upload" transform="translate(-0.108 0)">
    <g id="Group_31" data-name="Group 31">
      <g id="Group_30" data-name="Group 30">
        <path id="Path_13" data-name="Path 13" d="M391.86,144.552c.16-2.712.248-5.464.248-8.312a136,136,0,0,0-266.1-39.84c-2.024-.1-3.976-.16-5.9-.16a120,120,0,1,0,0,240H192.2a8,8,0,1,0,0-16H120.108a104,104,0,0,1,0-208,107.419,107.419,0,0,1,11.04.6,8.16,8.16,0,0,0,8.56-6.008,120,120,0,0,1,236.4,29.408,108.522,108.522,0,0,1-.968,14.92,8,8,0,0,0,7.928,9.08h1.04a80,80,0,0,1,0,160H288.644a8,8,0,1,0,0,16h95.464a96,96,0,0,0,7.752-191.688Z" fill="#1e7b49"/>
        <path id="Path_14" data-name="Path 14" d="M336.276,245.088l-96.168-96.16-96.168,96.16,11.32,11.32,76.848-76.856V480.24h16V179.552l76.848,76.856Z" fill="#1e7b49"/>
      </g>
    </g>
  </g>
</svg>
