<svg id="Group_58" data-name="Group 58" xmlns="http://www.w3.org/2000/svg" width="61.766" height="137.235" viewBox="0 0 61.766 137.235">
  <path id="Path_1" data-name="Path 1" d="M45.272,137.235l-8.094-32.22c-6.084-24.217-2.52-52.607,7.775-69.041A320.086,320.086,0,0,0,63.087,3.01L64.514,0,67.83,8.436a161.547,161.547,0,0,1,9.061,32.692Z" transform="translate(-34.202 0)" fill="#c48c3f"/>
  <path id="Path_2" data-name="Path 2" d="M163.145,121.608l-1.078-10.374c-5.329,24.179-19,37.026-26.83,53.71a496.032,496.032,0,0,0-21.53,53.71h8.111c36.053,0,46.544-46.842,41.326-97.046Z" transform="translate(-102.637 -81.419)" fill="#c48c3f"/>
  <path id="Path_3" data-name="Path 3" d="M162.066,111.234l-1.965,1.514a126.123,126.123,0,0,1-14.776,9.8h0q-4.472,2.539-9.005,4.678c-12.985,6.166-22.614,28.737-22.614,55.638v35.79s33.713-40.958,48.36-107.42Z" transform="translate(-102.636 -81.419)" fill="#e8b087"/>
</svg>
